# xmcd
#
# Track frame offsets: 
#        150
#        11578
#        25165
#        37483
#        52854
#        67291
#        86305
#        101093
#        114437
#        127255
#        141935
#        157206
#        170432
#        184274
#        198238
#        214909
#        236176
#        249779
#        262656
#        274764
#        288460
#        299732
#        312222
#        325897
#        338893
#
# Disc length: 4691 seconds
#
# Revision: 0
# Processed by: cddbd v1.5.2PL0 Copyright (c) Steve Scherf et al.
# Submitted via: ExactAudioCopy v1.0b1
#
DISCID=86125119
DTITLE=Dinah Shore - Love Walked In
DYEAR=2005
DGENRE=Easy Listening
TTITLE0=Auld Lang Syne
TTITLE1=Someone to Watch over Me
TTITLE2=How Deep is the Ocean
TTITLE3=Welcome to my Dream
TTITLE4=Now I Know
TTITLE5=Two Silhouettes
TTITLE6=As Long as I Live
TTITLE7=Blue Skies
TTITLE8=But I Did
TTITLE9=Love Walked In
TTITLE10=Goodnght Captain Curly-Head
TTITLE11=White Christmas
TTITLE12=I Can't Get Started
TTITLE13=I Look at Heaven
TTITLE14=Can't Help Lovin' Dat Man
TTITLE15=The Way You Look Tonight
TTITLE16=My Guy's Come Back
TTITLE17=I Couldn't Sleep a Wink Last Night
TTITLE18=Remember
TTITLE19=Do It Again
TTITLE20=Why Don't You Fall in Love with Me
TTITLE21=As We Walk into the Sunset
TTITLE22=I Fall in Love too Easily
TTITLE23=Be Careful It's my Heart
TTITLE24=Pass that Peace Pipe
EXTD=
EXTT0=
EXTT1=
EXTT2=
EXTT3=
EXTT4=
EXTT5=
EXTT6=
EXTT7=
EXTT8=
EXTT9=
EXTT10=
EXTT11=
EXTT12=
EXTT13=
EXTT14=
EXTT15=
EXTT16=
EXTT17=
EXTT18=
EXTT19=
EXTT20=
EXTT21=
EXTT22=
EXTT23=
EXTT24=
PLAYORDER=
